<svg width="21" height="24" viewBox="0 0 21 24" fill="none" xmlns="http://www.w3.org/2000/svg">
    <path d="M0.5 4.25006H20.5M15.5 4.25006L15.1617 3.23515C14.8339 2.25162 14.6699 1.75986 14.3659 1.39629C14.0974 1.07522 13.7526 0.826711 13.3631 0.673536C12.922 0.500061 12.4037 0.500061 11.367 0.500061H9.633C8.59625 0.500061 8.078 0.500061 7.63689 0.673536C7.2474 0.826711 6.9026 1.07522 6.63411 1.39629C6.33006 1.75986 6.16615 2.25162 5.8383 3.23515L5.5 4.25006M18 4.25006V17.0001C18 19.1003 18 20.1503 17.5912 20.9526C17.2317 21.6582 16.6581 22.2318 15.9525 22.5913C15.1502 23.0001 14.1002 23.0001 12 23.0001H9C6.8998 23.0001 5.8497 23.0001 5.04754 22.5913C4.34192 22.2318 3.76825 21.6582 3.40872 20.9526C3 20.1503 3 19.1003 3 17.0001V4.25006M13 9.25006V18.0001M8 9.25006V18.0001" stroke="#DC4C4B" stroke-linecap="round" stroke-linejoin="round"/>
</svg>
