<svg width="96" height="130" viewBox="0 0 96 130" fill="none" xmlns="http://www.w3.org/2000/svg">
    <path opacity="0.4" d="M50.8096 0.0777324L50.7696 0.923789L46.3855 0.716631L46.4255 -0.129426L50.8096 0.0777324ZM58.8418 1.30268L58.6617 2.13031L54.3731 1.19704L54.5532 0.369414L58.8418 1.30268ZM66.5473 3.88557L66.2257 4.66916L62.1653 3.00291L62.4869 2.21932L66.5473 3.88557ZM73.6978 7.74445L73.2488 8.46269L69.527 6.13646L69.9759 5.41821L73.6978 7.74445ZM80.0857 12.7669L79.52 13.3973L76.2535 10.4659L76.8192 9.83554L80.0857 12.7669ZM85.525 18.8035L84.8607 19.329L82.1376 15.8869L82.8018 15.3614L85.525 18.8035ZM89.8558 25.6785L89.1114 26.0826L87.0173 22.2254L87.7616 21.8213L89.8558 25.6785ZM92.9351 33.199L92.1318 33.4677L90.7392 29.3056L91.5424 29.0368L92.9351 33.199ZM94.6688 41.1373L93.8313 41.2638L93.1761 36.9239L94.0136 36.7975L94.6688 41.1373ZM95.1924 49.2344L94.3455 49.2455L94.2879 44.8569L95.1349 44.8458L95.1924 49.2344ZM95.2322 57.2991L94.3852 57.2991L94.3852 52.9101L95.2322 52.9101L95.2322 57.2991ZM95.2322 65.3577L94.3852 65.3577L94.3852 60.9687L95.2322 60.9687L95.2322 65.3577ZM95.2322 73.4163L94.3852 73.4163L94.3852 69.0273L95.2322 69.0273L95.2322 73.4163ZM95.1719 81.4819L94.325 81.4717L94.3776 77.0831L95.2245 77.0932L95.1719 81.4819ZM94.3898 89.5673L93.552 89.4427L94.1974 85.1014L95.0352 85.226L94.3898 89.5673ZM92.34 97.4301L91.536 97.1637L92.9164 92.9974L93.7204 93.2638L92.34 97.4301ZM88.9584 104.819L88.2131 104.417L90.2989 100.555L91.0441 100.958L88.9584 104.819ZM84.3573 111.517L83.6915 110.993L86.4048 107.543L87.0705 108.067L84.3573 111.517ZM78.684 117.333L78.1169 116.704L81.3772 113.766L81.9443 114.395L78.684 117.333ZM72.1001 122.096L71.6491 121.379L75.3643 119.042L75.8152 119.759L72.1001 122.096ZM64.8039 125.671L64.4806 124.888L68.5374 123.213L68.8607 123.996L64.8039 125.671ZM57.0003 127.94L56.8178 127.112L61.1036 126.167L61.2862 126.994L57.0003 127.94ZM48.9261 128.846L48.8854 128L53.2693 127.789L53.3101 128.635L48.9261 128.846ZM40.8146 128.385L40.9162 127.544L45.2735 128.07L45.1719 128.911L40.8146 128.385ZM32.8991 126.546L33.1441 125.735L37.3454 127.005L37.1003 127.816L32.8991 126.546ZM25.414 123.385L25.7929 122.627L29.7183 124.59L29.3394 125.348L25.414 123.385ZM18.5794 118.99L19.0829 118.308L22.6122 120.917L22.1087 121.599L18.5794 118.99ZM12.5935 113.495L13.2051 112.909L16.2415 116.078L15.6299 116.664L12.5935 113.495ZM7.628 107.063L8.33032 106.59L10.7836 110.229L10.0813 110.703L7.628 107.063ZM3.84247 99.8723L4.61622 99.5277L6.4016 103.537L5.62784 103.882L3.84247 99.8723ZM1.35172 92.138L2.17308 91.9312L3.24477 96.1874L2.42341 96.3942L1.35172 92.138ZM0.225409 84.0907L1.07009 84.0281L1.39469 88.4051L0.550011 88.4677L0.225409 84.0907ZM0.000210363 76.0043L0.847211 76.0043L0.847211 80.3933L0.000210555 80.3933L0.000210363 76.0043ZM0.000210363 67.9457L0.847211 67.9457L0.847211 72.3347L0.000210555 72.3347L0.000210363 67.9457ZM0.000210363 59.8871L0.847211 59.8871L0.847211 64.2761L0.000210555 64.2761L0.000210363 59.8871ZM0.000210363 51.8285L0.847211 51.8285L0.847211 56.2175L0.000210555 56.2175L0.000210363 51.8285ZM0.283769 43.7433L1.12943 43.7909L0.88271 48.1729L0.0370488 48.1253L0.283769 43.7433ZM1.58846 35.7214L2.41417 35.9101L1.43612 40.1888L0.610414 40L1.58846 35.7214ZM4.23931 28.0407L5.02032 28.3684L3.32189 32.4155L2.54088 32.0877L4.23931 28.0407ZM8.1827 20.9346L8.89457 21.3936L6.51625 25.0823L5.80438 24.6234L8.1827 20.9346ZM13.2835 14.6097L13.9074 15.1825L10.9391 18.4156L10.3152 17.8427L13.2835 14.6097ZM19.3816 9.24055L19.8994 9.91083L16.4261 12.5941L15.9083 11.9238L19.3816 9.24055ZM26.3107 4.99425L26.7052 5.74376L22.8214 7.78805L22.4269 7.03854L26.3107 4.99425ZM33.8609 1.99139L34.1229 2.79684L29.9492 4.15453L29.6871 3.34907L33.8609 1.99139ZM41.7848 0.221145L41.9219 1.05697L37.5908 1.76747L37.4537 0.931637L41.7848 0.221145Z" fill="white"/>
    <g opacity="0.3">
        <path d="M34.0537 81.7949C34.0537 81.7949 31.2412 81.7949 31.2412 78.9824C31.2412 76.1699 34.0537 67.7324 48.1162 67.7324C62.1787 67.7324 64.9912 76.1699 64.9912 78.9824C64.9912 81.7949 62.1787 81.7949 62.1787 81.7949H34.0537ZM48.1162 64.9199C50.354 64.9199 52.5001 64.031 54.0824 62.4486C55.6648 60.8663 56.5537 58.7202 56.5537 56.4824C56.5537 54.2447 55.6648 52.0985 54.0824 50.5162C52.5001 48.9339 50.354 48.0449 48.1162 48.0449C45.8784 48.0449 43.7323 48.9339 42.15 50.5162C40.5677 52.0985 39.6787 54.2447 39.6787 56.4824C39.6787 58.7202 40.5677 60.8663 42.15 62.4486C43.7323 64.031 45.8784 64.9199 48.1162 64.9199Z" fill="white"/>
    </g>
</svg>
