<svg width="20" height="20" viewBox="0 0 20 20" fill="none" xmlns="http://www.w3.org/2000/svg">
    <g clip-path="url(#clip0_202_1306)">
        <path d="M20.0001 10.0615C20.0001 4.50399 15.5226 -0.00100708 10.0001 -0.00100708C4.47506 0.00024292 -0.00244141 4.50399 -0.00244141 10.0627C-0.00244141 15.084 3.65506 19.2465 8.43506 20.0015V12.9702H5.89756V10.0627H8.43756V7.84399C8.43756 5.32274 9.93131 3.93024 12.2151 3.93024C13.3101 3.93024 14.4538 4.12649 14.4538 4.12649V6.60149H13.1926C11.9513 6.60149 11.5638 7.37774 11.5638 8.17399V10.0615H14.3363L13.8938 12.969H11.5626V20.0002C16.3426 19.2452 20.0001 15.0827 20.0001 10.0615Z" fill="#1877F2"/>
    </g>
    <defs>
        <clipPath id="clip0_202_1306">
            <rect width="20" height="20" fill="white"/>
        </clipPath>
    </defs>
</svg>
