<svg width="17" height="17" viewBox="0 0 17 17" fill="none" xmlns="http://www.w3.org/2000/svg">
    <path d="M0 2.125C0 1.56141 0.223883 1.02091 0.622398 0.622398C1.02091 0.223883 1.56141 0 2.125 0L10.625 0C11.1886 0 11.7291 0.223883 12.1276 0.622398C12.5261 1.02091 12.75 1.56141 12.75 2.125V4.25H14.875C15.4386 4.25 15.9791 4.47388 16.3776 4.8724C16.7761 5.27091 17 5.81141 17 6.375V14.875C17 15.4386 16.7761 15.9791 16.3776 16.3776C15.9791 16.7761 15.4386 17 14.875 17H6.375C5.81141 17 5.27091 16.7761 4.8724 16.3776C4.47388 15.9791 4.25 15.4386 4.25 14.875V12.75H2.125C1.56141 12.75 1.02091 12.5261 0.622398 12.1276C0.223883 11.7291 0 11.1886 0 10.625V2.125ZM5.3125 12.75V14.875C5.3125 15.1568 5.42444 15.427 5.6237 15.6263C5.82296 15.8256 6.09321 15.9375 6.375 15.9375H14.875C15.1568 15.9375 15.427 15.8256 15.6263 15.6263C15.8256 15.427 15.9375 15.1568 15.9375 14.875V6.375C15.9375 6.09321 15.8256 5.82296 15.6263 5.6237C15.427 5.42444 15.1568 5.3125 14.875 5.3125H12.75V10.625C12.75 11.1886 12.5261 11.7291 12.1276 12.1276C11.7291 12.5261 11.1886 12.75 10.625 12.75H5.3125Z" fill="#0052DB"/>
</svg>
