<svg width="23" height="23" viewBox="0 0 23 23" fill="none" xmlns="http://www.w3.org/2000/svg">
    <path d="M5.56493 17.7583C5.5819 17.7296 5.59928 17.7013 5.61708 17.6729C6.91514 15.6094 7.66658 13.1692 7.66658 10.5417C7.66658 8.42457 9.38282 6.70833 11.4999 6.70833C13.617 6.70833 15.3332 8.42457 15.3332 10.5417C15.3332 11.5163 15.2669 12.4762 15.1384 13.4167M13.1092 19.9751C13.6954 18.805 14.176 17.5729 14.5386 16.2917M18.2176 17.3765C18.8358 15.2046 19.1667 12.9118 19.1667 10.5417C19.1667 6.30748 15.7342 2.875 11.5 2.875C10.1036 2.875 8.79433 3.24835 7.66667 3.90067M2.875 14.7239C3.48897 13.4602 3.83333 12.0411 3.83333 10.5417C3.83333 9.14523 4.20668 7.83599 4.859 6.70833M11.4999 10.5417C11.4999 13.9123 10.5331 17.0572 8.86178 19.7141" stroke="#0052DB" stroke-linecap="round" stroke-linejoin="round"/>
</svg>
