<svg width="26" height="26" viewBox="0 0 26 26" fill="none" xmlns="http://www.w3.org/2000/svg">
    <path d="M9.89551 13.8535C9.93108 13.8535 9.96637 13.8547 10.001 13.8584C11.0096 13.9117 11.8165 14.7215 11.8682 15.7305C11.8716 15.7641 11.874 15.7985 11.874 15.833V23.749L11.8643 23.9512C11.7695 24.8814 11.0279 25.6229 10.0977 25.7178L9.89551 25.7285H1.97949L1.77734 25.7178C0.846784 25.6232 0.10456 24.8817 0.00976562 23.9512L0 23.749V15.833C0 15.7985 0.00143581 15.764 0.00488281 15.7305C0.056491 14.7215 0.864609 13.9119 1.87305 13.8584C1.90792 13.8547 1.94364 13.8535 1.97949 13.8535H9.89551ZM23.749 13.8535C23.7846 13.8535 23.8199 13.8547 23.8545 13.8584C24.89 13.9131 25.7165 14.7651 25.7275 15.8115C25.7277 15.8185 25.7285 15.826 25.7285 15.833V23.749L25.7178 23.9512C25.623 24.8815 24.8815 25.623 23.9512 25.7178L23.749 25.7285H15.833L15.6309 25.7178C14.7004 25.6232 13.9591 24.8816 13.8643 23.9512L13.8535 23.749V15.833C13.8535 15.7969 13.8546 15.7607 13.8584 15.7256C13.9124 14.7189 14.7198 13.9118 15.7266 13.8584C15.7615 13.8547 15.7971 13.8535 15.833 13.8535H23.749ZM1.97949 23.749H9.89551V15.833H1.97949V23.749ZM15.833 23.749H23.749V15.833H15.833V23.749ZM9.99707 0.00488281C11.0075 0.0563117 11.8165 0.866601 11.8682 1.87695C11.8716 1.91059 11.874 1.94495 11.874 1.97949V9.89551L11.8643 10.0977C11.7695 11.0279 11.0279 11.7694 10.0977 11.8643L9.89551 11.874H1.97949L1.87793 11.8691L1.87695 11.8682C0.900254 11.8182 0.107919 11.0611 0.00976562 10.0977L0 9.89551V1.97949C0 1.945 0.00143268 1.91054 0.00488281 1.87695C0.0565154 0.866704 0.866704 0.0565154 1.87695 0.00488281C1.91058 0.00142487 1.94496 0 1.97949 0H9.89551C9.92976 0 9.96371 0.00148003 9.99707 0.00488281ZM23.8506 0.00488281C24.888 0.0576456 25.7166 0.91026 25.7275 1.95801C25.7277 1.96504 25.7285 1.97243 25.7285 1.97949V9.89551L25.7178 10.0977C25.623 11.0279 24.8815 11.7695 23.9512 11.8643L23.749 11.874H15.833C15.7984 11.874 15.7642 11.8716 15.7305 11.8682C14.7214 11.8165 13.9117 11.0096 13.8584 10.001C13.8547 9.96634 13.8535 9.93111 13.8535 9.89551V1.97949C13.8535 1.94368 13.8547 1.90788 13.8584 1.87305C13.9119 0.864617 14.7215 0.0564589 15.7305 0.00488281C15.7641 0.00141982 15.7984 0 15.833 0H23.749C23.7833 0 23.8172 0.00148504 23.8506 0.00488281ZM1.97949 9.89551H9.89551V1.97949H1.97949V9.89551ZM15.833 9.89551H23.749V1.97949H15.833V9.89551Z" fill="white"/>
</svg>
