<svg width="23" height="22" viewBox="0 0 23 22" fill="none" xmlns="http://www.w3.org/2000/svg">
    <path d="M22.2623 9.67357L11.6882 0.217904C11.6697 0.199418 11.6512 0.185553 11.6281 0.171689C11.3971 -0.0501452 11.0273 -0.0593883 10.7824 0.157824L0.20832 9.61349C-0.0504864 9.84456 -0.0689725 10.2374 0.157483 10.4962C0.282264 10.6348 0.453261 10.7042 0.624258 10.7042C0.772147 10.7042 0.920036 10.6533 1.0402 10.547L2.94427 8.84169V9.17444V14.1102V19.8687C2.94427 20.7329 3.64674 21.44 4.51559 21.44C4.52945 21.44 4.5387 21.44 4.55256 21.44C4.56643 21.44 4.57567 21.44 4.58953 21.44H7.85234C8.66573 21.44 9.32661 20.7791 9.32661 19.9657V14.3598C9.32661 14.235 9.42828 14.1333 9.55306 14.1333H12.9222C13.0469 14.1333 13.1486 14.235 13.1486 14.3598V19.9657C13.1486 20.7791 13.8095 21.44 14.6229 21.44H17.9596C18.8377 21.44 19.531 20.5758 19.531 19.4712V14.3321V12.7608V8.90177L21.435 10.6071C21.5552 10.7134 21.7031 10.7642 21.851 10.7642C22.022 10.7642 22.193 10.6949 22.3177 10.5563C22.5396 10.2975 22.5165 9.90464 22.2623 9.67357ZM18.2785 12.7561V14.3275V19.462C18.2785 19.9103 18.0567 20.1829 17.955 20.1829H14.6183C14.4935 20.1829 14.3918 20.0813 14.3918 19.9565V14.3598C14.3918 13.5464 13.7309 12.8855 12.9175 12.8855H9.54844C8.73505 12.8855 8.07417 13.5464 8.07417 14.3598V19.9657C8.07417 20.0905 7.9725 20.1922 7.84772 20.1922H4.58491C4.57105 20.1922 4.5618 20.1922 4.54794 20.1922C4.53408 20.1922 4.52483 20.1922 4.51097 20.1922C4.33535 20.1922 4.18746 20.0489 4.18746 19.8687V14.1056V9.16982V7.72328L11.203 1.45648L18.2785 7.78336V12.7561Z" fill="#004CCB"/>
</svg>
