<svg width="26" height="26" viewBox="0 0 26 26" fill="none" xmlns="http://www.w3.org/2000/svg">
    <g clip-path="url(#clip0_365_342)">
        <path d="M12.7708 13.863C12.7974 13.863 12.8241 13.863 12.856 13.863C12.8667 13.863 12.8773 13.863 12.888 13.863C12.904 13.863 12.9253 13.863 12.9413 13.863C14.5023 13.8363 15.765 13.2876 16.6974 12.238C18.7486 9.92571 18.4076 5.96182 18.3703 5.58355C18.2371 2.74382 16.8945 1.38523 15.7863 0.751221C14.9605 0.277046 13.9962 0.0213112 12.92 0H12.8827C12.8773 0 12.8667 0 12.8614 0H12.8294C12.238 0 11.0765 0.0959006 9.96302 0.72991C8.84418 1.36392 7.48026 2.72251 7.34707 5.58355C7.30977 5.96182 6.96879 9.92571 9.02 12.238C9.94704 13.2876 11.2097 13.8363 12.7708 13.863ZM8.76959 5.71674C8.76959 5.70076 8.77492 5.68477 8.77492 5.67412C8.95074 1.85408 11.6626 1.44384 12.8241 1.44384H12.8454C12.856 1.44384 12.872 1.44384 12.888 1.44384C14.3265 1.4758 16.772 2.06186 16.9371 5.67412C16.9371 5.6901 16.9371 5.70609 16.9425 5.71674C16.9478 5.75404 17.3207 9.37695 15.6265 11.2843C14.9552 12.0409 14.0601 12.4138 12.8827 12.4245C12.872 12.4245 12.8667 12.4245 12.856 12.4245C12.8454 12.4245 12.84 12.4245 12.8294 12.4245C11.6573 12.4138 10.7569 12.0409 10.0909 11.2843C8.40197 9.3876 8.76427 5.74871 8.76959 5.71674Z" fill="#9B96AB"/>
        <path d="M23.8046 20.4375C23.8046 20.4321 23.8046 20.4268 23.8046 20.4215C23.8046 20.3789 23.7993 20.3362 23.7993 20.2883C23.7673 19.2334 23.6981 16.7666 21.3858 15.9781C21.3698 15.9728 21.3485 15.9674 21.3325 15.9621C18.9297 15.3494 16.9318 13.9642 16.9105 13.9482C16.5855 13.7191 16.1379 13.799 15.9088 14.124C15.6797 14.449 15.7596 14.8965 16.0846 15.1256C16.1752 15.1896 18.2957 16.6654 20.9489 17.3473C22.1903 17.7895 22.3288 19.1162 22.3661 20.3309C22.3661 20.3789 22.3661 20.4215 22.3715 20.4641C22.3768 20.9436 22.3448 21.6842 22.2596 22.1104C21.3965 22.6006 18.0133 24.2948 12.8666 24.2948C7.74129 24.2948 4.33682 22.5952 3.46839 22.1051C3.38315 21.6788 3.34585 20.9383 3.35651 20.4588C3.35651 20.4162 3.36183 20.3735 3.36183 20.3256C3.39913 19.1108 3.53765 17.7842 4.77903 17.342C7.43228 16.66 9.55275 15.1789 9.64332 15.1203C9.96832 14.8912 10.0482 14.4437 9.81914 14.1187C9.59004 13.7937 9.14251 13.7138 8.81751 13.9429C8.7962 13.9588 6.80893 15.3441 4.39543 15.9568C4.37412 15.9621 4.35813 15.9674 4.34215 15.9728C2.02988 16.7666 1.96062 19.2334 1.92865 20.283C1.92865 20.3309 1.92865 20.3735 1.92333 20.4162C1.92333 20.4215 1.92333 20.4268 1.92333 20.4321C1.918 20.7092 1.91267 22.1317 2.19504 22.8456C2.24832 22.9842 2.34422 23.1014 2.47209 23.1813C2.63192 23.2878 6.46262 25.728 12.872 25.728C19.2813 25.728 23.112 23.2825 23.2719 23.1813C23.3944 23.1014 23.4956 22.9842 23.5489 22.8456C23.8153 22.137 23.81 20.7145 23.8046 20.4375Z" fill="#9B96AB"/>
    </g>
    <defs>
        <clipPath id="clip0_365_342">
            <rect width="25.728" height="25.728" fill="white"/>
        </clipPath>
    </defs>
</svg>
