<svg width="26" height="26" viewBox="0 0 26 26" fill="none" xmlns="http://www.w3.org/2000/svg">
    <path d="M20.0452 10.6639C19.7569 10.6636 19.4712 10.7182 19.2033 10.8246C18.9387 9.85525 18.0504 9.14051 16.9984 9.14051C16.7101 9.1402 16.4244 9.19473 16.1565 9.30118C16.0332 8.84933 15.7742 8.45293 15.4265 8.1583C15.9534 7.3167 16.2367 6.34074 16.2367 5.33197C16.2367 2.39189 13.8448 0 10.9048 0C7.96474 0 5.57279 2.39189 5.57279 5.33197C5.57279 7.40313 6.77727 9.27513 8.61961 10.1497V14.511L8.21941 14.1109C7.18007 13.0716 5.4889 13.0715 4.44946 14.1109C3.41007 15.1503 3.41007 16.8415 4.44946 17.8809L8.74042 22.1719L10.2062 25.5421C10.2654 25.6781 10.363 25.794 10.4871 25.8753C10.6112 25.9567 10.7564 26 10.9048 26L20.0484 25.9996C20.2084 25.9996 20.3642 25.9493 20.494 25.8557C20.6237 25.7621 20.7207 25.6301 20.7711 25.4783C21.7912 22.4119 22.3303 19.0477 22.3303 15.7496V12.949C22.3303 11.689 21.3052 10.6639 20.0452 10.6639ZM8.61961 5.33197V8.37894C7.6793 7.67181 7.09618 6.55006 7.09618 5.33197C7.09618 3.23197 8.80471 1.52343 10.9047 1.52343C13.0047 1.52343 14.7132 3.23197 14.7132 5.33197C14.7132 6.16184 14.4448 6.96042 13.9515 7.61707C13.692 7.61682 13.4344 7.66096 13.1898 7.74758V5.33197C13.1898 4.07194 12.1647 3.04687 10.9047 3.04687C9.64468 3.04682 8.61961 4.07194 8.61961 5.33197ZM20.8069 15.7496C20.8069 18.7002 20.3536 21.7051 19.4932 24.4762L11.4041 24.4765L10.0798 21.4316C10.0417 21.344 9.98749 21.2643 9.91991 21.1968L5.52668 16.8036C5.07996 16.3569 5.07991 15.6349 5.52668 15.1881C5.97341 14.7414 6.69546 14.7413 7.14224 15.1881L8.84269 16.8885C8.94922 16.9951 9.08495 17.0676 9.23271 17.097C9.38048 17.1264 9.53364 17.1113 9.67283 17.0537C9.81202 16.996 9.93099 16.8984 10.0147 16.7731C10.0984 16.6478 10.1431 16.5006 10.143 16.3499V5.33197C10.143 4.91196 10.4848 4.57025 10.9048 4.57025C11.3248 4.57025 11.6665 4.91196 11.6665 5.33197V12.949C11.6665 13.3697 12.0075 13.7108 12.4282 13.7108C12.8489 13.7108 13.1899 13.3697 13.1899 12.949V9.90222C13.1899 9.48221 13.5316 9.14051 13.9516 9.14051C14.3716 9.14051 14.7134 9.48221 14.7134 9.90222V12.949C14.7134 13.3697 15.0544 13.7108 15.4751 13.7108C15.8957 13.7108 16.2368 13.3697 16.2368 12.949V11.4256C16.2368 11.0056 16.5784 10.6639 16.9985 10.6639C17.4185 10.6639 17.7602 11.0056 17.7602 11.4256V12.949C17.7602 13.3697 18.1013 13.7108 18.5219 13.7108C18.9426 13.7108 19.2837 13.3697 19.2837 12.949C19.2837 12.529 19.6254 12.1873 20.0454 12.1873C20.4654 12.1873 20.8071 12.529 20.8071 12.949V15.7496H20.8069Z" fill="#9B96AB"/>
</svg>
