<svg width="15" height="15" viewBox="0 0 15 15" fill="none" xmlns="http://www.w3.org/2000/svg">
    <path d="M7.24678 3.13184C6.52461 2.4094 6.03031 1.14785 5.78501 0C5.53933 1.14809 5.04556 2.4099 4.32312 3.13233C3.60096 3.85427 2.33902 4.34856 1.19141 4.59437C2.33949 4.83967 3.60119 5.33367 4.32336 6.05613C5.04553 6.7783 5.53982 8.04012 5.78551 9.18797C6.03081 8.03988 6.52496 6.77807 7.24701 6.05563C7.96918 5.33347 9.23111 4.8394 10.3787 4.5936C9.23091 4.3483 7.96921 3.85403 7.24678 3.13184Z" fill="#0052DB"/>
    <path d="M11.9379 8.91618C11.5068 8.4849 11.211 7.73083 11.0645 7.04517C10.9177 7.73083 10.6229 8.48487 10.1913 8.91642C9.75978 9.34749 9.00586 9.64301 8.32031 9.78981C9.00609 9.93659 9.75978 10.2316 10.1913 10.6632C10.6229 11.0945 10.9182 11.8485 11.065 12.5342C11.2115 11.8483 11.5068 11.0945 11.9381 10.6629C12.3694 10.2316 13.1234 9.93633 13.8088 9.78932C13.1234 9.64277 12.3694 9.34749 11.9379 8.91618Z" fill="#0052DB"/>
    <path d="M4.28756 10.3917C4.16431 10.9673 3.91681 11.6005 3.55458 11.9627C3.19241 12.3247 2.55942 12.5727 1.98389 12.696C2.55942 12.8195 3.19241 13.0667 3.55458 13.4292C3.91681 13.7913 4.1648 14.4241 4.28806 15C4.41119 14.4241 4.65881 13.7914 5.02115 13.4289C5.38309 13.0668 6.01619 12.819 6.59161 12.6955C6.01622 12.5724 5.38309 12.3247 5.02092 11.9625C4.65881 11.6006 4.41069 10.9673 4.28756 10.3917Z" fill="#0052DB"/>
</svg>
