<svg width="20" height="20" viewBox="0 0 20 20" fill="none" xmlns="http://www.w3.org/2000/svg">
    <path fill-rule="evenodd" clip-rule="evenodd" d="M6.66667 8.33334C6.66667 6.49239 8.15905 5.00001 10 5.00001C11.8409 5.00001 13.3333 6.49239 13.3333 8.33334V9.16668H14.1667C15.7775 9.16668 17.0833 10.4725 17.0833 12.0833C17.0833 13.6942 15.7775 15 14.1667 15H13.3333C12.8731 15 12.5 15.3731 12.5 15.8333C12.5 16.2936 12.8731 16.6667 13.3333 16.6667H14.1667C16.698 16.6667 18.75 14.6147 18.75 12.0833C18.75 9.81609 17.1037 7.93332 14.9413 7.56521C14.5718 5.16845 12.5002 3.33334 10 3.33334C7.49978 3.33334 5.42817 5.16845 5.05863 7.56521C2.89626 7.93332 1.25 9.81609 1.25 12.0833C1.25 14.6147 3.30202 16.6667 5.83333 16.6667H6.66667C7.1269 16.6667 7.5 16.2936 7.5 15.8333C7.5 15.3731 7.1269 15 6.66667 15H5.83333C4.2225 15 2.91667 13.6942 2.91667 12.0833C2.91667 10.4725 4.2225 9.16668 5.83333 9.16668H6.66667V8.33334ZM13.0892 11.0774L10.5892 8.57743C10.2638 8.25198 9.73617 8.25198 9.41075 8.57743L6.91074 11.0774C6.58531 11.4028 6.58531 11.9305 6.91074 12.2559C7.23618 12.5813 7.76382 12.5813 8.08926 12.2559L9.16667 11.1785V15.8333C9.16667 16.2936 9.53975 16.6667 10 16.6667C10.4602 16.6667 10.8333 16.2936 10.8333 15.8333V11.1785L11.9107 12.2559C12.2362 12.5813 12.7638 12.5813 13.0892 12.2559C13.4147 11.9305 13.4147 11.4028 13.0892 11.0774Z" fill="#0052DB"/>
</svg>
