<svg width="20" height="20" viewBox="0 0 20 20" fill="none" xmlns="http://www.w3.org/2000/svg">
    <path d="M5.89352 8.1775L4.17852 9.8925C3.4752 10.5958 3.08008 11.5497 3.08008 12.5444C3.08008 13.539 3.4752 14.4929 4.17852 15.1962C4.88184 15.8996 5.83575 16.2947 6.8304 16.2947C7.82504 16.2947 8.77895 15.8996 9.48227 15.1962L11.7673 12.91C12.1914 12.4858 12.5076 11.9661 12.6893 11.3944C12.871 10.8228 12.9129 10.2159 12.8115 9.62467C12.7101 9.03346 12.4683 8.47521 12.1066 7.99676C11.7448 7.51831 11.2735 7.13362 10.7323 6.875L9.99977 7.6075C9.92539 7.68198 9.86071 7.76556 9.80727 7.85625C10.2254 7.97646 10.605 8.20372 10.9084 8.51557C11.2118 8.82742 11.4286 9.21305 11.5373 9.63435C11.646 10.0556 11.6428 10.498 11.5282 10.9177C11.4135 11.3375 11.1913 11.72 10.8835 12.0275L8.59977 14.3125C8.13067 14.7816 7.49443 15.0451 6.83102 15.0451C6.16761 15.0451 5.53137 14.7816 5.06227 14.3125C4.59317 13.8434 4.32963 13.2072 4.32963 12.5437C4.32963 11.8803 4.59317 11.2441 5.06227 10.775L6.05352 9.785C5.91327 9.26098 5.85923 8.71888 5.89352 8.1775Z" fill="#015BF3"/>
    <path d="M8.23244 5.83999C7.80832 6.26416 7.49214 6.78389 7.31045 7.35555C7.12876 7.92721 7.08685 8.53411 7.18824 9.12532C7.28963 9.71652 7.53136 10.2748 7.89315 10.7532C8.25494 11.2317 8.72622 11.6164 9.26744 11.875L10.2362 10.905C9.81237 10.7913 9.42594 10.5681 9.11573 10.2577C8.80552 9.9474 8.58246 9.56087 8.46895 9.13701C8.35545 8.71315 8.35551 8.26688 8.46912 7.84304C8.58273 7.41921 8.8059 7.03275 9.11619 6.72249L11.3999 4.43749C11.869 3.96838 12.5053 3.70485 13.1687 3.70485C13.8321 3.70485 14.4683 3.96838 14.9374 4.43749C15.4065 4.90659 15.6701 5.54283 15.6701 6.20624C15.6701 6.86965 15.4065 7.50588 14.9374 7.97498L13.9462 8.96498C14.0862 9.48998 14.1399 10.0337 14.1062 10.5737L15.8212 8.85873C16.5245 8.15541 16.9196 7.20151 16.9196 6.20686C16.9196 5.21221 16.5245 4.25831 15.8212 3.55499C15.1179 2.85166 14.164 2.45654 13.1693 2.45654C12.1747 2.45654 11.2208 2.85166 10.5174 3.55499L8.23244 5.83999Z" fill="#015BF3"/>
</svg>
